<?xml version="1.0" encoding="UTF-8"?>
<svg width="126px" height="25px" viewBox="0 0 126 25" version="1.1" xmlns="http://www.w3.org/2000/svg" xmlns:xlink="http://www.w3.org/1999/xlink">
    <!-- Generator: Sketch 47 (45396) - http://www.bohemiancoding.com/sketch -->
    <title>Group</title>
    <desc>Created with Sketch.</desc>
    <defs></defs>
    <g id="Symbols" stroke="none" stroke-width="1" fill="none" fill-rule="evenodd">
        <g id="Nav-/-positive" transform="translate(-248.000000, -24.000000)" fill="#FFFFFF">
            <g id="Group" transform="translate(248.000000, 24.000000)">
                <text id="ACME-CORP." font-family="Montserrat-Bold, Montserrat" font-size="15" font-weight="bold">
                    <tspan x="31" y="17">ACME </tspan>
                    <tspan x="80.935" y="17" font-family="Montserrat-Light, Montserrat" font-weight="300">CORP.</tspan>
                </text>
                <path d="M12.702832,24.9130859 C19.7184124,24.9130859 25.4056641,19.4343176 25.4056641,12.6759144 C25.4056641,5.91751121 19.7184124,0.438742898 12.702832,0.438742898 C5.68725162,0.438742898 0,5.91751121 0,12.6759144 C0,19.4343176 5.68725162,24.9130859 12.702832,24.9130859 L12.702832,24.9130859 Z M22.2299561,12.6759144 C22.2299561,7.60711201 17.9645173,3.49803578 12.702832,3.49803578 C7.44114672,3.49803578 3.17570801,7.60711201 3.17570801,12.6759144 C3.17570801,17.7447168 7.44114672,21.8537931 12.702832,21.8537931 C17.9645173,21.8537931 22.2299561,17.7447168 22.2299561,12.6759144 Z" id="Oval-3"></path>
            </g>
        </g>
    </g>
</svg>